<?xml version="1.0" encoding="UTF-8" standalone="no"?>
<!-- Created with Inkscape (http://www.inkscape.org/) -->

<svg
   width="213.55653mm"
   height="65.767853mm"
   viewBox="0 0 213.55654 65.767854"
   version="1.1"
   id="svg8"
   inkscape:version="1.3.1 (91b66b0783, 2023-11-16)"
   sodipodi:docname="Intro_File.svg"
   inkscape:export-filename="Intro_File.png"
   inkscape:export-xdpi="125"
   inkscape:export-ydpi="125"
   xmlns:inkscape="http://www.inkscape.org/namespaces/inkscape"
   xmlns:sodipodi="http://sodipodi.sourceforge.net/DTD/sodipodi-0.dtd"
   xmlns="http://www.w3.org/2000/svg"
   xmlns:svg="http://www.w3.org/2000/svg"
   xmlns:rdf="http://www.w3.org/1999/02/22-rdf-syntax-ns#"
   xmlns:cc="http://creativecommons.org/ns#"
   xmlns:dc="http://purl.org/dc/elements/1.1/">
  <defs
     id="defs2" />
  <sodipodi:namedview
     id="base"
     pagecolor="#ffffff"
     bordercolor="#666666"
     borderopacity="1.0"
     inkscape:pageopacity="0.0"
     inkscape:pageshadow="2"
     inkscape:zoom="1.979899"
     inkscape:cx="204.30335"
     inkscape:cy="79.549513"
     inkscape:document-units="mm"
     inkscape:current-layer="layer1"
     showgrid="true"
     inkscape:window-width="1920"
     inkscape:window-height="991"
     inkscape:window-x="-9"
     inkscape:window-y="-9"
     inkscape:window-maximized="1"
     showguides="false"
     inkscape:lockguides="false"
     inkscape:showpageshadow="2"
     inkscape:pagecheckerboard="0"
     inkscape:deskcolor="#d1d1d1">
    <inkscape:grid
       type="xygrid"
       id="grid10"
       originx="57.651385"
       originy="39.457126"
       spacingy="1"
       spacingx="1"
       units="mm"
       visible="true" />
  </sodipodi:namedview>
  <metadata
     id="metadata5">
    <rdf:RDF>
      <cc:Work
         rdf:about="">
        <dc:format>image/svg+xml</dc:format>
        <dc:type
           rdf:resource="http://purl.org/dc/dcmitype/StillImage" />
        <dc:title />
      </cc:Work>
    </rdf:RDF>
  </metadata>
  <g
     inkscape:label="Layer 1"
     inkscape:groupmode="layer"
     id="layer1"
     transform="translate(57.651382,-223.14705)">
    <rect
       id="rect12"
       width="150.8125"
       height="95.249985"
       x="-18.52083"
       y="217.625"
       style="fill:none;fill-opacity:1;stroke-width:0.20259" />
    <text
       xml:space="preserve"
       style="font-style:normal;font-weight:normal;font-size:25.4px;line-height:1.25;font-family:sans-serif;letter-spacing:0px;word-spacing:0px;fill:#808b96;fill-opacity:1;stroke:none;stroke-width:0.264583"
       x="7.8684831"
       y="254.16219"
       id="text824"><tspan
         sodipodi:role="line"
         id="tspan822"
         x="7.8684831"
         y="254.16219"
         style="font-style:normal;font-variant:normal;font-weight:normal;font-stretch:normal;font-size:25.4px;font-family:'Segoe UI';-inkscape-font-specification:'Segoe UI';opacity:0.85;fill:#876870;fill-opacity:1;stroke-width:0.264583">Nwinix</tspan></text>
    <text
       xml:space="preserve"
       style="font-style:normal;font-weight:normal;font-size:6.35px;line-height:1.45;font-family:sans-serif;letter-spacing:0px;word-spacing:0px;fill:#969696;fill-opacity:1;stroke:none;stroke-width:0.264583"
       x="-17.422239"
       y="270.62067"
       id="text825"><tspan
         sodipodi:role="line"
         x="-17.422239"
         y="270.62067"
         style="font-style:normal;font-variant:normal;font-weight:300;font-stretch:normal;font-size:6.35px;line-height:1.45;font-family:Bahnschrift;-inkscape-font-specification:'Bahnschrift Light';fill:#876870;fill-opacity:1;stroke-width:0.264583"
         id="tspan2">THE NEW SOFTWARE TECHNOLOGY</tspan></text>
    <rect
       style="fill:none;fill-opacity:1;stroke-width:0.264583"
       id="rect849"
       width="103.1875"
       height="58.208332"
       x="5.2916698"
       y="234.02919" />
    <path
       d="m 3.8921986,238.68985 v 0 a 0.01185201,0.01204694 0 0 1 -0.011808,-0.0121 1.9200231,1.9516044 0 0 0 -0.7111206,-0.71077 l -10.4297521,-5.9632 a 1.8963192,1.9275107 0 0 0 -1.8489116,0 l -10.4297553,5.96323 a 1.9200231,1.9516044 0 0 0 -0.711118,0.71077 0.01185201,0.01204694 0 0 1 -0.01186,0.0121 v 0.0242 a 1.7777991,1.807041 0 0 0 -0.248892,0.92762 v 11.87829 a 1.9081711,1.9395576 0 0 0 0.971863,1.68655 l 10.4297555,5.96324 a 1.9555791,1.9877453 0 0 0 0.8533437,0.24095 h 0.1659281 a 1.9081711,1.9395576 0 0 0 0.8296396,-0.24095 l 10.4297574,-5.9633 a 1.9081711,1.9395576 0 0 0 0.9718609,-1.68656 v -11.87833 a 1.848911,1.8793227 0 0 0 -0.2488912,-0.9517 z m -11.9705124,5.78252 -9.5408552,-5.39703 9.434187,-5.39702 9.4460385,5.39702 z m 10.3230871,7.04747 -9.4697437,5.42111 0.094817,-10.79407 9.3749283,-5.42111 z"
       id="path1"
       style="fill:#876870;fill-opacity:1;stroke:none;stroke-width:0.119491;stroke-opacity:1" />
  </g>
</svg>
