<?xml version="1.0" encoding="UTF-8" standalone="no"?>
<svg
   data-name="Layer 1"
   id="Layer_1"
   viewBox="0 0 65.111967 64.370661"
   version="1.1"
   sodipodi:docname="build_system_generator.svg"
   inkscape:version="1.3.2 (091e20e, 2023-11-25, custom)"
   width="65.111969"
   height="64.370659"
   inkscape:export-filename="..\..\..\..\Pcynlitx_Build_Platform\icons\build_system_generator.png"
   inkscape:export-xdpi="96"
   inkscape:export-ydpi="96"
   xmlns:inkscape="http://www.inkscape.org/namespaces/inkscape"
   xmlns:sodipodi="http://sodipodi.sourceforge.net/DTD/sodipodi-0.dtd"
   xmlns="http://www.w3.org/2000/svg"
   xmlns:svg="http://www.w3.org/2000/svg">
  <sodipodi:namedview
     id="namedview5"
     pagecolor="#ffffff"
     bordercolor="#000000"
     borderopacity="0.25"
     inkscape:showpageshadow="2"
     inkscape:pageopacity="0.0"
     inkscape:pagecheckerboard="0"
     inkscape:deskcolor="#d1d1d1"
     showgrid="true"
     inkscape:zoom="8.09375"
     inkscape:cx="68.880309"
     inkscape:cy="25.57529"
     inkscape:window-width="1920"
     inkscape:window-height="991"
     inkscape:window-x="-9"
     inkscape:window-y="-9"
     inkscape:window-maximized="1"
     inkscape:current-layer="Layer_1">
    <inkscape:grid
       id="grid5"
       units="px"
       originx="45.220807"
       originy="44.832038"
       spacingx="1"
       spacingy="1"
       empcolor="#0099e5"
       empopacity="0.30196078"
       color="#0099e5"
       opacity="0.14902"
       empspacing="5"
       dotted="false"
       gridanglex="30"
       gridanglez="30"
       visible="true" />
  </sodipodi:namedview>
  <defs
     id="defs1">
    <inkscape:perspective
       sodipodi:type="inkscape:persp3d"
       inkscape:vp_x="57.353498 : 23.799252 : 1"
       inkscape:vp_y="0 : 683.89809 : 0"
       inkscape:vp_z="57.803189 : 23.6757 : 1"
       inkscape:persp3d-origin="75.740505 : 17.588717 : 1"
       id="perspective1" />
    <style
       id="style1">.cls-1{fill:#757575;}.cls-2{fill:#bdbdbd;}.cls-3{fill:#f5f5f5;}</style>
  </defs>
  <title
     id="title1" />
  <rect
     style="fill:#c86464;fill-opacity:1;stroke:none;stroke-width:0.853049;stroke-miterlimit:0;stroke-dasharray:none;stroke-dashoffset:0;stroke-opacity:1"
     id="rect30"
     width="59.419632"
     height="59.607395"
     x="2.8416986"
     y="2.3474903"
     ry="2.5441051" />
  <g
     transform="matrix(0.00323952,0,0,-0.00335199,12.310816,53.408288)"
     fill="#000000"
     stroke="none"
     id="g2"
     style="fill:#ffffff;fill-opacity:1">
    <path
       d="m 6835,12720 c -176,-42 -624,-151 -995,-240 -371,-89 -916,-220 -1210,-291 -294,-71 -751,-181 -1015,-245 -264,-63 -750,-180 -1080,-260 -330,-79 -841,-202 -1135,-273 -294,-71 -726,-175 -960,-231 -234,-56 -428,-105 -433,-109 -4,-4 20,-606 53,-1337 109,-2416 139,-3075 205,-4529 35,-792 67,-1498 71,-1568 l 7,-128 986,-812 C 1871,2251 2722,1550 3220,1141 3718,731 4222,312 4340,211 4458,110 4562,20 4572,13 c 14,-13 62,2 400,120 210,75 482,167 603,205 121,39 561,179 978,311 416,133 1097,349 1512,481 1541,490 2284,726 2805,891 294,94 627,200 740,236 113,36 209,69 214,73 5,5 15,267 22,582 31,1353 35,1544 44,1948 6,234 19,826 30,1315 19,870 25,1121 55,2410 8,347 15,824 15,1060 v 430 l -238,134 c -346,196 -2653,1502 -4112,2328 -255,145 -469,263 -475,262 -5,0 -154,-36 -330,-79 z m -307,-2492 -3,-1132 -110,-28 c -60,-15 -243,-62 -405,-104 -162,-41 -373,-95 -467,-120 -425,-109 -527,-135 -661,-169 l -142,-36 -1210,847 c -666,466 -1207,851 -1203,855 5,3 283,73 618,154 545,131 1369,331 2560,620 220,53 510,123 645,156 135,32 270,66 300,73 30,8 61,15 68,15 10,1 12,-228 10,-1131 z m 2104,300 c 497,-292 933,-549 970,-571 37,-21 70,-42 72,-46 3,-3 -300,-85 -672,-180 -372,-96 -813,-209 -979,-251 l -303,-78 v 829 c 0,456 2,829 5,829 3,0 411,-239 907,-532 z M 2647,8414 3930,7519 v -75 c 0,-76 31,-1188 50,-1798 6,-181 9,-330 7,-332 -2,-2 -354,-99 -783,-215 C 1945,4759 1650,4679 1563,4656 l -81,-22 -6,100 c -3,56 -26,778 -51,1606 -25,828 -50,1638 -55,1800 -5,162 -14,462 -20,665 -5,204 -12,403 -15,444 -4,65 -3,72 12,67 9,-4 594,-410 1300,-902 z m 8094,-336 c -7,-452 -16,-1138 -21,-1523 -5,-385 -15,-1127 -21,-1650 -6,-522 -13,-952 -15,-954 -2,-2 -670,440 -1484,982 l -1480,987 2,1071 3,1072 150,42 c 83,24 256,72 385,108 129,36 462,129 740,207 278,78 708,197 955,267 248,69 527,147 620,173 94,26 171,47 173,45 2,-2 -1,-374 -7,-827 z M 6530,6865 c 0,-684 -3,-866 -12,-870 -7,-2 -105,-28 -218,-59 -113,-30 -382,-102 -598,-161 -217,-59 -396,-104 -400,-100 -8,8 -51,1688 -43,1697 3,3 112,36 241,71 276,77 736,206 900,252 63,18 118,33 123,34 4,0 7,-388 7,-864 z M 8053,4223 c 1085,-786 1620,-1173 1700,-1231 27,-19 45,-38 40,-42 -4,-5 -66,-26 -138,-48 -71,-22 -350,-109 -620,-192 -269,-84 -647,-201 -840,-260 -344,-106 -712,-220 -2130,-659 -390,-121 -711,-218 -714,-216 -4,5 -42,2897 -38,2902 4,4 283,86 792,233 231,67 524,152 650,190 127,38 238,69 248,69 10,1 483,-335 1050,-746 z M 4034,3653 c 3,-247 11,-686 17,-977 5,-291 8,-531 5,-533 -3,-3 -305,235 -673,528 -367,293 -775,618 -906,722 -131,104 -237,191 -235,192 3,3 281,84 1008,295 212,62 466,136 565,165 99,30 187,54 196,54 14,1 17,-47 23,-446 z"
       id="path1-8"
       style="fill:#ffffff;fill-opacity:1" />
  </g>
</svg>
