<?xml version="1.0" encoding="UTF-8" standalone="no"?>
<svg
   data-name="Layer 1"
   id="Layer_1"
   viewBox="0 0 60.169882 59.675676"
   version="1.1"
   sodipodi:docname="build_system_generator_circular.svg"
   inkscape:version="1.3.2 (091e20e, 2023-11-25, custom)"
   width="60.169884"
   height="59.675674"
   inkscape:export-filename="..\..\..\..\Project.Test.platform\icons\build_system_generator.png"
   inkscape:export-xdpi="96"
   inkscape:export-ydpi="96"
   xmlns:inkscape="http://www.inkscape.org/namespaces/inkscape"
   xmlns:sodipodi="http://sodipodi.sourceforge.net/DTD/sodipodi-0.dtd"
   xmlns="http://www.w3.org/2000/svg"
   xmlns:svg="http://www.w3.org/2000/svg">
  <sodipodi:namedview
     id="namedview5"
     pagecolor="#ffffff"
     bordercolor="#000000"
     borderopacity="0.25"
     inkscape:showpageshadow="2"
     inkscape:pageopacity="0.0"
     inkscape:pagecheckerboard="0"
     inkscape:deskcolor="#d1d1d1"
     showgrid="true"
     inkscape:zoom="5.7231455"
     inkscape:cx="11.270026"
     inkscape:cy="39.925597"
     inkscape:window-width="1920"
     inkscape:window-height="1111"
     inkscape:window-x="-9"
     inkscape:window-y="-9"
     inkscape:window-maximized="1"
     inkscape:current-layer="Layer_1"
     showguides="true">
    <inkscape:grid
       id="grid5"
       units="px"
       originx="44.973702"
       originy="44.832039"
       spacingx="1"
       spacingy="1"
       empcolor="#0099e5"
       empopacity="0.30196078"
       color="#0099e5"
       opacity="0.14902"
       empspacing="5"
       dotted="false"
       gridanglex="30"
       gridanglez="30"
       visible="true" />
  </sodipodi:namedview>
  <defs
     id="defs1">
    <inkscape:perspective
       sodipodi:type="inkscape:persp3d"
       inkscape:vp_x="57.353498 : 19.104267 : 1"
       inkscape:vp_y="0 : 683.89809 : 0"
       inkscape:vp_z="57.803189 : 18.980715 : 1"
       inkscape:persp3d-origin="75.740505 : 12.893732 : 1"
       id="perspective1" />
    <style
       id="style1">.cls-1{fill:#757575;}.cls-2{fill:#bdbdbd;}.cls-3{fill:#f5f5f5;}</style>
  </defs>
  <title
     id="title1" />
  <path
     d="m 48.970606,11.867388 c -10.559399,-10.2187318 -27.681595,-10.2187318 -38.240998,0 -10.56030529,10.220474 -10.56030529,26.787632 0,37.008102 10.559403,10.218735 27.681599,10.218735 38.240998,0 10.560304,-10.22047 10.560304,-26.787628 0,-37.008102 M 42.469122,48.687952 38.989875,44.9895 c -2.777993,1.741066 -5.969682,2.693591 -9.311923,2.693591 -9.844623,0 -17.854997,-8.270057 -17.854997,-18.184359 h 7.06935 c 0,6.310052 4.838493,10.973245 10.785647,10.973245 1.478229,0 2.908685,-0.308784 4.228261,-0.886229 l -3.553144,-3.776964 h 12.116053 v 12.879168 m -1.651298,-19.18922 c 0,-5.97772 -4.83127,-10.451629 -10.769412,-10.451629 -1.537721,0 -3.033983,0.311401 -4.412151,0.908039 l 3.792011,3.56587 H 17.231103 v -11.46783 l 3.115096,2.928234 c 2.890654,-1.817827 6.23559,-2.765117 9.702213,-2.765117 9.830208,0 17.828848,7.886257 17.828848,17.281557 h -7.059436 z"
     fill="#43a047"
     id="path1-7"
     style="fill:#fcaf3b;fill-opacity:1;stroke:#fcaf3b;stroke-width:0.961764;stroke-dasharray:none;stroke-opacity:1" />
  <path
     style="fill:#fcaf3b;fill-opacity:1;stroke:#fcaf3b;stroke-width:0;stroke-dasharray:none;stroke-opacity:1"
     d="M 28.824705,3.7262566 2.2217926,30.436776 V 3.4919538 Z"
     id="path1" />
  <path
     style="fill:#fcaf3b;fill-opacity:1;stroke:#fcaf3b;stroke-width:0;stroke-dasharray:none;stroke-opacity:1"
     d="M 31.016732,57.008061 57.233493,32.890591 V 57.219616 Z"
     id="path1-6" />
</svg>
