<?xml version="1.0" encoding="UTF-8" standalone="no"?>
<!-- Generator: Adobe Illustrator 27.7.0, SVG Export Plug-In . SVG Version: 6.00 Build 0)  -->

<svg
   version="1.1"
   id="mdi-checkbox-multiple-marked"
   x="0px"
   y="0px"
   viewBox="0 0 57.824429 58.335995"
   xml:space="preserve"
   sodipodi:docname="file_selection_icon.svg"
   width="57.824429"
   height="58.335995"
   inkscape:version="1.3.1 (91b66b0783, 2023-11-16)"
   inkscape:export-filename="..\..\..\..\Pcynlitx_Build_Platform\icons\file_selection_icon.png"
   inkscape:export-xdpi="96"
   inkscape:export-ydpi="96"
   xmlns:inkscape="http://www.inkscape.org/namespaces/inkscape"
   xmlns:sodipodi="http://sodipodi.sourceforge.net/DTD/sodipodi-0.dtd"
   xmlns="http://www.w3.org/2000/svg"
   xmlns:svg="http://www.w3.org/2000/svg"><defs
   id="defs1" /><sodipodi:namedview
   id="namedview1"
   pagecolor="#ffffff"
   bordercolor="#000000"
   borderopacity="0.25"
   inkscape:showpageshadow="2"
   inkscape:pageopacity="0.0"
   inkscape:pagecheckerboard="0"
   inkscape:deskcolor="#d1d1d1"
   showgrid="false"
   inkscape:zoom="4.2923591"
   inkscape:cx="60.456265"
   inkscape:cy="-4.7759284"
   inkscape:window-width="1920"
   inkscape:window-height="991"
   inkscape:window-x="-9"
   inkscape:window-y="-9"
   inkscape:window-maximized="1"
   inkscape:current-layer="mdi-checkbox-multiple-marked"><inkscape:grid
     id="grid1"
     units="px"
     originx="-0.70485703"
     originy="-0.10643841"
     spacingx="1"
     spacingy="1"
     empcolor="#0099e5"
     empopacity="0.30196078"
     color="#0099e5"
     opacity="0.14901961"
     empspacing="5"
     dotted="false"
     gridanglex="30"
     gridanglez="30"
     visible="false" /></sodipodi:namedview>

<rect
   style="fill:#919191;fill-opacity:1;stroke:#919191;stroke-width:0.176378;stroke-miterlimit:1;stroke-opacity:1"
   id="rect1"
   width="57.824429"
   height="58.335995"
   x="0"
   y="0"
   ry="3.3081379" /><g
   id="g2"
   transform="matrix(0.08751649,0,0,0.08926556,5.5886671,6.057882)"
   style="fill:#ffffff;fill-opacity:1;stroke:none">
	<path
   d="m 512,358.4 c 0,28.28 -22.92,51.2 -51.2,51.2 H 153.6 c -28.42,0 -51.2,-23.04 -51.2,-51.2 V 51.2 C 102.4,22.78 125.18,0 153.6,0 H 460.8 C 489.08,0 512,22.92 512,51.2 V 358.4 M 358.4,460.8 V 512 H 51.2 C 22.92,512 0,489.08 0,460.8 V 128 H 51.2 V 460.8 H 358.4 M 281.6,307.2 460.8,128 424.7,91.9 281.6,234.75 202.5,155.9 166.4,192 Z"
   id="path1"
   style="fill:#ffffff;fill-opacity:1;stroke:none" />
</g></svg>
