<?xml version="1.0" encoding="UTF-8" standalone="no"?>
<!-- Created with Inkscape (http://www.inkscape.org/) -->

<svg
   width="1.3288645mm"
   height="1.3072834mm"
   viewBox="0 0 1.3288643 1.3072834"
   version="1.1"
   id="svg8"
   inkscape:version="1.3.2 (091e20e, 2023-11-25, custom)"
   sodipodi:docname="save_icon_small.svg"
   inkscape:export-filename="..\..\..\..\pcynlitx_build_platform\icons\save_icon_small.png"
   inkscape:export-xdpi="500"
   inkscape:export-ydpi="500"
   xmlns:inkscape="http://www.inkscape.org/namespaces/inkscape"
   xmlns:sodipodi="http://sodipodi.sourceforge.net/DTD/sodipodi-0.dtd"
   xmlns:xlink="http://www.w3.org/1999/xlink"
   xmlns="http://www.w3.org/2000/svg"
   xmlns:svg="http://www.w3.org/2000/svg"
   xmlns:rdf="http://www.w3.org/1999/02/22-rdf-syntax-ns#"
   xmlns:cc="http://creativecommons.org/ns#"
   xmlns:dc="http://purl.org/dc/elements/1.1/">
  <defs
     id="defs2">
    <linearGradient
       inkscape:collect="always"
       id="linearGradient831">
      <stop
         style="stop-color:#000000;stop-opacity:1;"
         offset="0"
         id="stop827" />
      <stop
         style="stop-color:#000000;stop-opacity:0;"
         offset="1"
         id="stop829" />
    </linearGradient>
    <linearGradient
       inkscape:collect="always"
       xlink:href="#linearGradient831"
       id="linearGradient833"
       x1="72.944527"
       y1="85.866058"
       x2="73.818207"
       y2="85.866058"
       gradientUnits="userSpaceOnUse" />
  </defs>
  <sodipodi:namedview
     id="base"
     pagecolor="#ffffff"
     bordercolor="#666666"
     borderopacity="1.0"
     inkscape:pageopacity="0.0"
     inkscape:pageshadow="2"
     inkscape:zoom="90.509668"
     inkscape:cx="1.5357475"
     inkscape:cy="2.9554854"
     inkscape:document-units="mm"
     inkscape:current-layer="g5"
     showgrid="true"
     inkscape:window-width="1366"
     inkscape:window-height="705"
     inkscape:window-x="-8"
     inkscape:window-y="-8"
     inkscape:window-maximized="1"
     showguides="false"
     inkscape:showpageshadow="2"
     inkscape:pagecheckerboard="0"
     inkscape:deskcolor="#d1d1d1">
    <inkscape:grid
       type="xygrid"
       id="grid10"
       originx="-72.76407"
       originy="-210.34621"
       spacingy="1"
       spacingx="1"
       units="mm"
       visible="true" />
  </sodipodi:namedview>
  <metadata
     id="metadata5">
    <rdf:RDF>
      <cc:Work
         rdf:about="">
        <dc:format>image/svg+xml</dc:format>
        <dc:type
           rdf:resource="http://purl.org/dc/dcmitype/StillImage" />
      </cc:Work>
    </rdf:RDF>
  </metadata>
  <g
     inkscape:label="Layer 1"
     inkscape:groupmode="layer"
     id="layer1"
     transform="translate(-72.764059,-85.071211)">
    <text
       xml:space="preserve"
       style="font-style:normal;font-variant:normal;font-weight:normal;font-stretch:normal;font-size:2.82222px;line-height:1.25;font-family:'Segoe UI';-inkscape-font-specification:'Segoe UI';font-variant-ligatures:normal;font-variant-caps:normal;font-variant-numeric:normal;font-feature-settings:normal;text-align:justify;letter-spacing:0px;word-spacing:0px;writing-mode:lr-tb;text-anchor:start;fill:#000000;fill-opacity:1;stroke:none;stroke-width:0.264583"
       x="79.375"
       y="72.104164"
       id="text16" />
    <polygon
       style="fill:#898792;fill-opacity:1;stroke:#ffffff;stroke-width:0;stroke-dasharray:none;stroke-opacity:1"
       points="500.494,500.494 500.494,109.795 402.205,11.506 11.506,11.506 11.506,500.494 "
       id="polygon1"
       transform="matrix(0.00268917,0,0,0.00265852,72.749182,85.049875)" />
    <g
       id="g2"
       transform="matrix(0.0021981,0,0,0.00216341,72.826901,85.227057)"
       style="fill:#ffffff;fill-opacity:0.895884">
      <rect
         x="120.49185"
         y="-57.015274"
         style="fill:#ffffff;fill-opacity:0.895884;stroke:#d1d7d1;stroke-width:1.18143;stroke-opacity:1"
         width="312.7587"
         height="217.40865"
         id="rect1-5" />
      <rect
         x="72.898888"
         y="296.2735"
         style="fill:#ffffff;fill-opacity:0.895884;stroke-width:1.18143"
         width="407.94702"
         height="224.2029"
         id="rect2" />
    </g>
    <g
       id="g5"
       transform="matrix(0.00259789,0,0,0.00255497,72.770436,85.074312)"
       style="fill:#b18d6f;fill-opacity:1;stroke:#818391;stroke-width:0;stroke-dasharray:none;stroke-opacity:1">
      <path
         style="fill:#696978;fill-opacity:1;stroke:#828291;stroke-width:0;stroke-dasharray:none;stroke-opacity:1"
         d="M 508.63,101.659 410.342,3.37 C 408.184,1.213 405.258,0 402.205,0 H 11.505 C 5.152,0 0,5.152 0,11.506 V 500.495 C 0,506.848 5.152,512 11.506,512 h 488.989 c 6.353,0 11.506,-5.152 11.506,-11.506 V 109.796 c -10e-4,-3.053 -1.214,-5.979 -3.371,-8.137 z M 376.809,23.011 V 184.09 H 135.191 V 23.011 Z M 94.921,488.989 V 373.933 h 322.157 l 0.001,115.057 H 94.921 Z M 417.079,350.921 H 94.921 v -28.764 h 322.157 v 28.764 z m 71.91,138.068 H 440.09 V 310.652 c 0,-6.353 -5.152,-11.506 -11.506,-11.506 H 83.416 c -6.353,0 -11.506,5.152 -11.506,11.506 V 488.989 H 23.011 V 23.011 h 89.169 v 172.584 c 0,6.353 5.152,11.506 11.506,11.506 h 264.629 c 6.353,0 11.506,-5.152 11.506,-11.506 V 25.392 l 89.169,89.169 v 374.428 z"
         id="path4"
         sodipodi:nodetypes="ccssssssscccccccccccccccccccccssssccccsssscccc" />
    </g>
  </g>
</svg>
