<?xml version="1.0" encoding="UTF-8" standalone="no"?>
<!-- Generator: Adobe Illustrator 27.7.0, SVG Export Plug-In . SVG Version: 6.00 Build 0)  -->

<svg
   version="1.1"
   id="mdi-text-box-multiple"
   x="0px"
   y="0px"
   viewBox="0 0 57.517178 58.296029"
   xml:space="preserve"
   sodipodi:docname="zoom.svg"
   width="57.517178"
   height="58.296028"
   inkscape:version="1.3.1 (91b66b0783, 2023-11-16)"
   inkscape:export-filename="zoom.png"
   inkscape:export-xdpi="96"
   inkscape:export-ydpi="96"
   xmlns:inkscape="http://www.inkscape.org/namespaces/inkscape"
   xmlns:sodipodi="http://sodipodi.sourceforge.net/DTD/sodipodi-0.dtd"
   xmlns="http://www.w3.org/2000/svg"
   xmlns:svg="http://www.w3.org/2000/svg"><defs
   id="defs1" /><sodipodi:namedview
   id="namedview1"
   pagecolor="#ffffff"
   bordercolor="#000000"
   borderopacity="0.25"
   inkscape:showpageshadow="2"
   inkscape:pageopacity="0.0"
   inkscape:pagecheckerboard="0"
   inkscape:deskcolor="#d1d1d1"
   showgrid="true"
   inkscape:zoom="8.5847183"
   inkscape:cx="40.245933"
   inkscape:cy="38.149184"
   inkscape:window-width="1920"
   inkscape:window-height="991"
   inkscape:window-x="-9"
   inkscape:window-y="-9"
   inkscape:window-maximized="1"
   inkscape:current-layer="mdi-text-box-multiple"><inkscape:grid
     id="grid1"
     units="px"
     originx="8.5662766"
     originy="9.8841677"
     spacingx="1"
     spacingy="1"
     empcolor="#0099e5"
     empopacity="0.30196078"
     color="#0099e5"
     opacity="0.14901961"
     empspacing="5"
     dotted="false"
     gridanglex="30"
     gridanglez="30"
     visible="true" /></sodipodi:namedview>

<rect
   style="fill:#878787;fill-opacity:1;stroke-width:0.60821;stroke-linejoin:round;stroke-miterlimit:1"
   id="rect1"
   width="57.517178"
   height="58.296028"
   x="0"
   y="0"
   ry="2.7394319" /><g
   id="g2"
   transform="matrix(0.07897894,0,0,0.07722562,7.785524,8.6240938)"
   style="fill:#e8e8e8;fill-opacity:1">
	<path
   d="M 349.09,325.82 H 186.18 v -46.55 h 162.91 m 69.82,-46.54 H 186.18 v -46.55 h 232.73 m 0,-46.54 H 186.18 V 93.09 H 418.91 M 465.45,0 H 139.64 C 113.8,0 93.09,20.71 93.09,46.55 v 325.82 c 0,25.83 20.95,46.55 46.55,46.55 h 325.82 c 25.83,0 46.55,-20.71 46.55,-46.55 V 46.55 C 512,20.71 491.05,0 465.45,0 M 46.55,93.09 V 465.45 H 418.91 V 512 H 46.55 C 20.84,512 0,491.16 0,465.45 V 93.09 Z"
   id="path1"
   style="fill:#e8e8e8;fill-opacity:1" />
</g></svg>
