<?xml version="1.0" encoding="UTF-8" standalone="no"?>
<svg
   data-name="Layer 1"
   id="Layer_1"
   viewBox="0 0 45.373606 44.602319"
   version="1.1"
   sodipodi:docname="build_system_generator_circular.svg"
   inkscape:version="1.4.2 (f4327f4, 2025-05-13)"
   width="45.373608"
   height="44.602318"
   inkscape:export-filename="..\png_files\build_system_generator.png"
   inkscape:export-xdpi="96"
   inkscape:export-ydpi="96"
   xmlns:inkscape="http://www.inkscape.org/namespaces/inkscape"
   xmlns:sodipodi="http://sodipodi.sourceforge.net/DTD/sodipodi-0.dtd"
   xmlns="http://www.w3.org/2000/svg"
   xmlns:svg="http://www.w3.org/2000/svg">
  <sodipodi:namedview
     id="namedview5"
     pagecolor="#ffffff"
     bordercolor="#000000"
     borderopacity="0.25"
     inkscape:showpageshadow="2"
     inkscape:pageopacity="0.0"
     inkscape:pagecheckerboard="0"
     inkscape:deskcolor="#d1d1d1"
     showgrid="true"
     inkscape:zoom="11.446291"
     inkscape:cx="40.580831"
     inkscape:cy="19.875434"
     inkscape:window-width="1920"
     inkscape:window-height="1111"
     inkscape:window-x="-9"
     inkscape:window-y="-9"
     inkscape:window-maximized="1"
     inkscape:current-layer="g3"
     showguides="true">
    <inkscape:grid
       id="grid5"
       units="px"
       originx="44.77007"
       originy="44.518523"
       spacingx="1"
       spacingy="1"
       empcolor="#0099e5"
       empopacity="0.30196078"
       color="#0099e5"
       opacity="0.14902"
       empspacing="5"
       dotted="false"
       gridanglex="30"
       gridanglez="30"
       visible="true" />
  </sodipodi:namedview>
  <defs
     id="defs1">
    <inkscape:perspective
       sodipodi:type="inkscape:persp3d"
       inkscape:vp_x="57.353498 : 4.0309103 : 1"
       inkscape:vp_y="0 : 683.89809 : 0"
       inkscape:vp_z="57.803189 : 3.9073583 : 1"
       inkscape:persp3d-origin="75.740504 : -2.179625 : 1"
       id="perspective1" />
    <style
       id="style1">.cls-1{fill:#757575;}.cls-2{fill:#bdbdbd;}.cls-3{fill:#f5f5f5;}</style>
  </defs>
  <title
     id="title1" />
  <g
     style="fill:none;fill-rule:nonzero;stroke:none;stroke-width:0;stroke-linecap:butt;stroke-linejoin:miter;stroke-miterlimit:10;stroke-dasharray:none"
     transform="matrix(0.55270238,0,0,0.50861234,145.34983,82.722123)"
     id="g3">
    <ellipse
       style="fill:#46465f;stroke:#46465f;stroke-width:0.313057;stroke-linejoin:round"
       id="path2"
       cx="-220.93419"
       cy="-118.58368"
       rx="36.498287"
       ry="39.062378" />
    <path
       d="m -192.95899,-149.62982 c -15.98004,-17.09696 -41.89187,-17.09696 -57.87192,0 -15.98141,17.09987 -15.98141,44.81839 0,61.918248 15.98005,17.096954 41.89188,17.096954 57.87192,0 15.9814,-17.099858 15.9814,-44.818378 0,-61.918248 m -9.83902,61.604477 -5.2653,-6.187889 c -4.20405,2.912979 -9.03423,4.506641 -14.09219,4.506641 -14.89833,0 -27.0208,-13.836609 -27.0208,-30.424239 h 10.69838 c 0,10.55735 7.32231,18.35935 16.32242,18.35935 2.23709,0 4.40184,-0.51665 6.39885,-1.48276 l -5.37715,-6.31924 h 18.33579 v 21.548137 m -2.49897,-32.105487 c 0,-10.00131 -7.3114,-17.48661 -16.29789,-17.48661 -2.32709,0 -4.59144,0.52101 -6.6771,1.51926 l 5.73863,5.96604 h -18.45855 v -19.18683 l 4.71422,4.89923 c 4.37456,-3.0414 9.43661,-4.62632 14.6828,-4.62632 14.87654,0 26.98125,13.19449 26.98125,28.91377 h -10.68336 z"
       fill="#fdd835"
       id="path1"
       style="fill:#b9b9c3;fill-opacity:1;fill-rule:nonzero;stroke:none;stroke-width:0;stroke-linecap:butt;stroke-linejoin:miter;stroke-miterlimit:10;stroke-dasharray:none" />
  </g>
</svg>
