<?xml version="1.0" encoding="UTF-8" standalone="no"?>
<svg
   data-name="Layer 1"
   id="Layer_1"
   viewBox="0 0 45.373606 44.602319"
   version="1.1"
   sodipodi:docname="build_system_generator_circular.svg"
   inkscape:version="1.4.2 (f4327f4, 2025-05-13)"
   width="45.373608"
   height="44.602318"
   inkscape:export-filename="..\png_files\build_system_generator.png"
   inkscape:export-xdpi="96"
   inkscape:export-ydpi="96"
   xmlns:inkscape="http://www.inkscape.org/namespaces/inkscape"
   xmlns:sodipodi="http://sodipodi.sourceforge.net/DTD/sodipodi-0.dtd"
   xmlns="http://www.w3.org/2000/svg"
   xmlns:svg="http://www.w3.org/2000/svg">
  <sodipodi:namedview
     id="namedview5"
     pagecolor="#ffffff"
     bordercolor="#000000"
     borderopacity="0.25"
     inkscape:showpageshadow="2"
     inkscape:pageopacity="0.0"
     inkscape:pagecheckerboard="0"
     inkscape:deskcolor="#d1d1d1"
     showgrid="true"
     inkscape:zoom="11.446291"
     inkscape:cx="35.863146"
     inkscape:cy="19.875434"
     inkscape:window-width="1920"
     inkscape:window-height="1111"
     inkscape:window-x="-9"
     inkscape:window-y="-9"
     inkscape:window-maximized="1"
     inkscape:current-layer="g3"
     showguides="true">
    <inkscape:grid
       id="grid5"
       units="px"
       originx="44.77007"
       originy="44.518523"
       spacingx="1"
       spacingy="1"
       empcolor="#0099e5"
       empopacity="0.30196078"
       color="#0099e5"
       opacity="0.14902"
       empspacing="5"
       dotted="false"
       gridanglex="30"
       gridanglez="30"
       visible="true" />
  </sodipodi:namedview>
  <defs
     id="defs1">
    <inkscape:perspective
       sodipodi:type="inkscape:persp3d"
       inkscape:vp_x="57.353498 : 4.0309103 : 1"
       inkscape:vp_y="0 : 683.89809 : 0"
       inkscape:vp_z="57.803189 : 3.9073583 : 1"
       inkscape:persp3d-origin="75.740504 : -2.179625 : 1"
       id="perspective1" />
    <style
       id="style1">.cls-1{fill:#757575;}.cls-2{fill:#bdbdbd;}.cls-3{fill:#f5f5f5;}</style>
  </defs>
  <title
     id="title1" />
  <g
     style="fill:none;fill-rule:nonzero;stroke:none;stroke-width:0;stroke-linecap:butt;stroke-linejoin:miter;stroke-miterlimit:10;stroke-dasharray:none"
     transform="matrix(0.55270238,0,0,0.50861234,145.34983,82.722123)"
     id="g3">
    <path
       d="m -193.1501,-149.60634 c -15.94918,-17.02988 -41.81096,-17.02988 -57.76015,0 -15.95054,17.03278 -15.95054,44.64256 0,61.67534 15.94919,17.029877 41.81097,17.029877 57.76015,0 15.95054,-17.03278 15.95054,-44.64256 0,-61.67534 m -9.82002,61.3628 -5.25513,-6.163608 c -4.19593,2.901544 -9.01678,4.48896 -14.06497,4.48896 -14.86956,0 -26.96861,-13.782342 -26.96861,-30.304892 h 10.67771 c 0,10.51593 7.30817,18.28732 16.2909,18.28732 2.23277,0 4.39334,-0.51462 6.38649,-1.47694 l -5.36676,-6.29445 h 18.30037 v 21.46361 m -2.49414,-31.97954 c 0,-9.96207 -7.29728,-17.41801 -16.26641,-17.41801 -2.3226,0 -4.58258,0.51897 -6.66421,1.5133 l 5.72755,5.94264 h -18.4229 v -19.11156 l 4.70511,4.88001 c 4.36612,-3.02947 9.41839,-4.60817 14.65445,-4.60817 14.8478,0 26.92914,13.14273 26.92914,28.80033 h -10.66273 z"
       fill="#fdd835"
       id="path1"
       style="fill:#b9b9c3;fill-opacity:1;stroke-width:0" />
  </g>
</svg>
