<?xml version="1.0" encoding="UTF-8" standalone="no"?>
<svg
   data-name="Layer 1"
   id="Layer_1"
   viewBox="0 0 60.169882 59.675676"
   version="1.1"
   sodipodi:docname="build_system_generator_circular.svg"
   inkscape:version="1.4.2 (f4327f4, 2025-05-13)"
   width="60.169884"
   height="59.675674"
   inkscape:export-filename="..\png_files\build_system_generator.png"
   inkscape:export-xdpi="96"
   inkscape:export-ydpi="96"
   xmlns:inkscape="http://www.inkscape.org/namespaces/inkscape"
   xmlns:sodipodi="http://sodipodi.sourceforge.net/DTD/sodipodi-0.dtd"
   xmlns="http://www.w3.org/2000/svg"
   xmlns:svg="http://www.w3.org/2000/svg">
  <sodipodi:namedview
     id="namedview5"
     pagecolor="#ffffff"
     bordercolor="#000000"
     borderopacity="0.25"
     inkscape:showpageshadow="2"
     inkscape:pageopacity="0.0"
     inkscape:pagecheckerboard="0"
     inkscape:deskcolor="#d1d1d1"
     showgrid="true"
     inkscape:zoom="5.7231455"
     inkscape:cx="49.011509"
     inkscape:cy="39.925597"
     inkscape:window-width="1920"
     inkscape:window-height="1111"
     inkscape:window-x="-9"
     inkscape:window-y="-9"
     inkscape:window-maximized="1"
     inkscape:current-layer="Layer_1"
     showguides="true">
    <inkscape:grid
       id="grid5"
       units="px"
       originx="44.973702"
       originy="44.832039"
       spacingx="1"
       spacingy="1"
       empcolor="#0099e5"
       empopacity="0.30196078"
       color="#0099e5"
       opacity="0.14902"
       empspacing="5"
       dotted="false"
       gridanglex="30"
       gridanglez="30"
       visible="true" />
  </sodipodi:namedview>
  <defs
     id="defs1">
    <inkscape:perspective
       sodipodi:type="inkscape:persp3d"
       inkscape:vp_x="57.353498 : 19.104267 : 1"
       inkscape:vp_y="0 : 683.89809 : 0"
       inkscape:vp_z="57.803189 : 18.980715 : 1"
       inkscape:persp3d-origin="75.740505 : 12.893732 : 1"
       id="perspective1" />
    <style
       id="style1">.cls-1{fill:#757575;}.cls-2{fill:#bdbdbd;}.cls-3{fill:#f5f5f5;}</style>
  </defs>
  <title
     id="title1" />
  <path
     d="m 49.227535,10.89169 c -10.5594,-10.21873338 -27.6816,-10.21873338 -38.241003,0 -10.56030467,10.220474 -10.56030467,26.787632 0,37.008102 10.559403,10.218735 27.681603,10.218735 38.241003,0 10.5603,-10.22047 10.5603,-26.787628 0,-37.008102 m -6.50149,36.820564 -3.47924,-3.698452 c -2.778,1.741066 -5.96968,2.693591 -9.31193,2.693591 -9.844622,0 -17.854996,-8.270057 -17.854996,-18.184359 h 7.06935 c 0,6.310052 4.838493,10.973245 10.785646,10.973245 1.47823,0 2.90869,-0.308784 4.22827,-0.886229 l -3.55315,-3.776964 h 12.11605 v 12.879168 m -1.65129,-19.18922 c 0,-5.97772 -4.83127,-10.451629 -10.76942,-10.451629 -1.53772,0 -3.03398,0.311401 -4.41215,0.908039 l 3.79201,3.56587 H 17.488027 v -11.46783 l 3.115096,2.928234 c 2.890654,-1.817827 6.235592,-2.765117 9.702212,-2.765117 9.83021,0 17.82885,7.886257 17.82885,17.281557 h -7.05943 z"
     fill="#43a047"
     id="path1-7"
     style="fill:#78788c;fill-opacity:1;stroke:#78788c;stroke-width:0.961764;stroke-dasharray:none;stroke-opacity:1" />
  <path
     style="fill:#78788c;fill-opacity:1;stroke:#78788c;stroke-width:0;stroke-dasharray:none;stroke-opacity:1"
     d="M 27.858522,2.7444803 2.3039875,28.76216 V 2.5162547 Z"
     id="path1" />
  <path
     style="fill:#78788c;fill-opacity:1;stroke:#fcaf3b;stroke-width:0;stroke-dasharray:none;stroke-opacity:1"
     d="M 33.894587,56.024766 57.490421,31.041247 v 25.20267 z"
     id="path1-6" />
</svg>
