<?xml version="1.0" encoding="UTF-8" standalone="no"?>
<svg
   data-name="Layer 1"
   id="Layer_1"
   viewBox="0 0 44.807051 44.743039"
   version="1.1"
   sodipodi:docname="build_system_generator_circular.svg"
   inkscape:version="1.4.2 (f4327f4, 2025-05-13)"
   width="44.807053"
   height="44.743038"
   inkscape:export-filename="..\png_files\build_system_generator.png"
   inkscape:export-xdpi="96"
   inkscape:export-ydpi="96"
   xmlns:inkscape="http://www.inkscape.org/namespaces/inkscape"
   xmlns:sodipodi="http://sodipodi.sourceforge.net/DTD/sodipodi-0.dtd"
   xmlns="http://www.w3.org/2000/svg"
   xmlns:svg="http://www.w3.org/2000/svg">
  <sodipodi:namedview
     id="namedview5"
     pagecolor="#ffffff"
     bordercolor="#000000"
     borderopacity="0.25"
     inkscape:showpageshadow="2"
     inkscape:pageopacity="0.0"
     inkscape:pagecheckerboard="0"
     inkscape:deskcolor="#d1d1d1"
     showgrid="true"
     inkscape:zoom="11.446291"
     inkscape:cx="33.766396"
     inkscape:cy="25.903587"
     inkscape:window-width="1920"
     inkscape:window-height="1111"
     inkscape:window-x="-9"
     inkscape:window-y="-9"
     inkscape:window-maximized="1"
     inkscape:current-layer="Layer_1"
     showguides="true">
    <inkscape:grid
       id="grid5"
       units="px"
       originx="44.6791"
       originy="44.76199"
       spacingx="1"
       spacingy="1"
       empcolor="#0099e5"
       empopacity="0.30196078"
       color="#0099e5"
       opacity="0.14902"
       empspacing="5"
       dotted="false"
       gridanglex="30"
       gridanglez="30"
       visible="true" />
  </sodipodi:namedview>
  <defs
     id="defs1">
    <inkscape:perspective
       sodipodi:type="inkscape:persp3d"
       inkscape:vp_x="57.353498 : 4.1716306 : 1"
       inkscape:vp_y="0 : 683.89808 : 0"
       inkscape:vp_z="57.803189 : 4.0480786 : 1"
       inkscape:persp3d-origin="75.740504 : -2.0389046 : 1"
       id="perspective1" />
    <style
       id="style1">.cls-1{fill:#757575;}.cls-2{fill:#bdbdbd;}.cls-3{fill:#f5f5f5;}</style>
  </defs>
  <title
     id="title1" />
  <path
     d="m 37.969621,6.9748508 c -8.592455,-8.5099027 -22.525228,-8.5099027 -31.1176844,0 -8.5931904,8.5113522 -8.5931904,22.3080622 0,30.8194122 8.5924564,8.509904 22.5252294,8.509904 31.1176844,0 8.593186,-8.51135 8.593186,-22.30806 0,-30.8194122 m -5.29043,30.6632352 -2.831147,-3.079977 c -2.260529,1.449915 -4.85768,2.243154 -7.577355,2.243154 -8.010822,0 -14.5290679,-6.887095 -14.5290679,-15.143475 h 5.7525119 c 0,5.254853 3.937205,9.138242 8.776556,9.138242 1.202874,0 2.366875,-0.257148 3.440652,-0.73803 l -2.89129,-3.145359 h 9.85914 V 37.638086 M 31.335494,21.657788 c 0,-4.978094 -3.931328,-8.703851 -8.763353,-8.703851 -1.251281,0 -2.468827,0.259327 -3.590279,0.756191 l 3.085656,2.969566 H 12.14237 V 7.1295754 l 2.534833,2.4385599 c 2.3522,-1.5138411 5.074061,-2.3027204 7.894938,-2.3027204 7.999094,0 14.507793,6.5674761 14.507793,14.3916441 h -5.74444 z"
     fill="#43a047"
     id="path1-7"
     style="fill:#555569;fill-opacity:1;stroke:#555569;stroke-width:0.791719;stroke-dasharray:none;stroke-opacity:1" />
  <path
     style="fill:#555569;fill-opacity:1;stroke:#78788c;stroke-width:0;stroke-dasharray:none;stroke-opacity:1"
     d="M 20.581107,0.19006051 0,21.856927 V 0 Z"
     id="path1" />
  <path
     style="fill:#555569;fill-opacity:1;stroke:#fcaf3b;stroke-width:0;stroke-dasharray:none;stroke-opacity:1"
     d="M 23.570788,44.560536 44.693342,23.754893 v 20.988146 z"
     id="path1-6" />
</svg>
