<?xml version="1.0" encoding="UTF-8" standalone="no"?>
<svg
   data-name="Layer 1"
   id="Layer_1"
   viewBox="0 0 45.430534 45.20192"
   version="1.1"
   sodipodi:docname="trash_icon.svg"
   inkscape:version="1.4.2 (f4327f4, 2025-05-13)"
   width="45.430534"
   height="45.20192"
   inkscape:export-filename="..\png_files\trash_icon.png"
   inkscape:export-xdpi="96"
   inkscape:export-ydpi="96"
   xmlns:inkscape="http://www.inkscape.org/namespaces/inkscape"
   xmlns:sodipodi="http://sodipodi.sourceforge.net/DTD/sodipodi-0.dtd"
   xmlns="http://www.w3.org/2000/svg"
   xmlns:svg="http://www.w3.org/2000/svg">
  <sodipodi:namedview
     id="namedview5"
     pagecolor="#ffffff"
     bordercolor="#000000"
     borderopacity="0.25"
     inkscape:showpageshadow="2"
     inkscape:pageopacity="0.0"
     inkscape:pagecheckerboard="0"
     inkscape:deskcolor="#d1d1d1"
     showgrid="true"
     inkscape:zoom="5.7231455"
     inkscape:cx="89.723387"
     inkscape:cy="23.151604"
     inkscape:window-width="1920"
     inkscape:window-height="1111"
     inkscape:window-x="-9"
     inkscape:window-y="-9"
     inkscape:window-maximized="1"
     inkscape:current-layer="Layer_1">
    <inkscape:grid
       id="grid5"
       units="px"
       originx="50.10479"
       originy="49.786282"
       spacingx="1"
       spacingy="1"
       empcolor="#0099e5"
       empopacity="0.30196078"
       color="#0099e5"
       opacity="0.14902"
       empspacing="5"
       dotted="false"
       gridanglex="30"
       gridanglez="30"
       visible="true" />
  </sodipodi:namedview>
  <defs
     id="defs1">
    <style
       id="style1">.cls-1{fill:#757575;}.cls-2{fill:#bdbdbd;}.cls-3{fill:#f5f5f5;}</style>
  </defs>
  <title
     id="title1" />
  <ellipse
     style="fill:#b9b9c3;fill-opacity:1;stroke:#b9b9c3;stroke-width:4.50023;stroke-linejoin:round;stroke-opacity:1"
     id="path1"
     cx="22.845827"
     cy="22.627419"
     rx="20.346775"
     ry="20.303093" />
  <g
     id="g2"
     transform="matrix(0.07955449,0,0,0.0723917,2.5338571,4.1616584)"
     style="fill:#46465f;fill-opacity:1">
    <path
       d="m 413.7,133.4 c -2.4,-9 -4,-14 -4,-14 -2.6,-9.3 -9.2,-9.3 -19,-10.9 l -53.1,-6.7 C 331,100.7 331,100.7 328.4,95 319.7,75.4 317,64 307.5,64 h -103 c -9.5,0 -12.1,11.4 -20.8,31.1 -2.6,5.6 -2.6,5.6 -9.2,6.8 l -53.2,6.7 c -9.7,1.6 -16.7,2.5 -19.3,11.8 0,0 -1.2,4.1 -3.7,13 -3.2,11.9 -4.5,10.6 6.5,10.6 h 302.4 c 11,0.1 9.8,1.3 6.5,-10.6 z"
       id="path1-5"
       style="fill:#46465f;fill-opacity:1" />
    <path
       d="M 379.4,176 H 132.6 c -16.6,0 -17.4,2.2 -16.4,14.7 l 18.7,242.6 c 1.6,12.3 2.8,14.8 17.5,14.8 h 207.2 c 14.7,0 15.9,-2.5 17.5,-14.8 l 18.7,-242.6 c 1,-12.6 0.2,-14.7 -16.4,-14.7 z"
       id="path2-17"
       style="fill:#46465f;fill-opacity:1" />
  </g>
</svg>
