<?xml version="1.0" encoding="UTF-8" standalone="no"?>
<svg
   viewBox="0 0 5.9463758 6.0083566"
   height="6.0083566"
   width="5.9463758"
   id="svg6428"
   version="1.1"
   sodipodi:docname="trash_icon_small.svg"
   inkscape:version="1.4.2 (f4327f4, 2025-05-13)"
   inkscape:export-filename="..\png_files\trash_icon_small.png"
   inkscape:export-xdpi="500"
   inkscape:export-ydpi="500"
   xmlns:inkscape="http://www.inkscape.org/namespaces/inkscape"
   xmlns:sodipodi="http://sodipodi.sourceforge.net/DTD/sodipodi-0.dtd"
   xmlns="http://www.w3.org/2000/svg"
   xmlns:svg="http://www.w3.org/2000/svg"
   xmlns:rdf="http://www.w3.org/1999/02/22-rdf-syntax-ns#"
   xmlns:cc="http://creativecommons.org/ns#"
   xmlns:dc="http://purl.org/dc/elements/1.1/">
  <sodipodi:namedview
     pagecolor="#ffffff"
     bordercolor="#666666"
     borderopacity="1"
     objecttolerance="10"
     gridtolerance="10"
     guidetolerance="10"
     inkscape:pageopacity="0"
     inkscape:pageshadow="2"
     inkscape:window-width="1920"
     inkscape:window-height="1111"
     id="namedview8"
     showgrid="true"
     inkscape:zoom="63.39016"
     inkscape:cx="5.1821923"
     inkscape:cy="3.8412902"
     inkscape:window-x="-9"
     inkscape:window-y="-9"
     inkscape:window-maximized="1"
     inkscape:current-layer="svg6428"
     inkscape:showpageshadow="2"
     inkscape:pagecheckerboard="0"
     inkscape:deskcolor="#d1d1d1">
    <inkscape:grid
       type="xygrid"
       id="grid10"
       originx="46.442909"
       originy="-26.590733"
       spacingy="1"
       spacingx="1"
       units="px"
       visible="true" />
  </sodipodi:namedview>
  <metadata
     id="metadata6434">
    <rdf:RDF>
      <cc:Work
         rdf:about="">
        <dc:format>image/svg+xml</dc:format>
        <dc:type
           rdf:resource="http://purl.org/dc/dcmitype/StillImage" />
      </cc:Work>
    </rdf:RDF>
  </metadata>
  <defs
     id="defs6432" />
  <rect
     style="fill:#868299;fill-opacity:1;stroke-width:0.149405;stroke-linejoin:round"
     id="rect1"
     width="5.9463758"
     height="6.0083566"
     x="0"
     y="0"
     ry="0.48395252" />
  <g
     id="g2"
     transform="matrix(0.01235503,0,0,0.01043006,-0.13675417,0.2313635)"
     style="fill:#f0f0f5;fill-opacity:1">
    <path
       d="m 413.7,133.4 c -2.4,-9 -4,-14 -4,-14 -2.6,-9.3 -9.2,-9.3 -19,-10.9 l -53.1,-6.7 C 331,100.7 331,100.7 328.4,95 319.7,75.4 317,64 307.5,64 h -103 c -9.5,0 -12.1,11.4 -20.8,31.1 -2.6,5.6 -2.6,5.6 -9.2,6.8 l -53.2,6.7 c -9.7,1.6 -16.7,2.5 -19.3,11.8 0,0 -1.2,4.1 -3.7,13 -3.2,11.9 -4.5,10.6 6.5,10.6 h 302.4 c 11,0.1 9.8,1.3 6.5,-10.6 z"
       id="path1-5"
       style="fill:#f0f0f5;fill-opacity:1" />
    <path
       d="M 379.4,176 H 132.6 c -16.6,0 -17.4,2.2 -16.4,14.7 l 18.7,242.6 c 1.6,12.3 2.8,14.8 17.5,14.8 h 207.2 c 14.7,0 15.9,-2.5 17.5,-14.8 l 18.7,-242.6 c 1,-12.6 0.2,-14.7 -16.4,-14.7 z"
       id="path2-17"
       style="fill:#f0f0f5;fill-opacity:1" />
  </g>
  <rect
     x="0.43990853"
     y="0.44055921"
     width="6.0010762"
     height="5.9099326"
     fill-opacity="0"
     id="rect4"
     style="stroke-width:0.165426" />
</svg>
