<?xml version="1.0" encoding="UTF-8" standalone="no"?>
<!-- Created with Inkscape (http://www.inkscape.org/) -->

<svg
   width="155.53278mm"
   height="131.7247mm"
   viewBox="0 0 155.53279 131.72469"
   version="1.1"
   id="svg8"
   inkscape:version="1.3.1 (91b66b0783, 2023-11-16)"
   sodipodi:docname="Intro_File_Back.svg"
   inkscape:export-filename="..\..\..\..\Pcynlitx_Build_Platform\Intro_File_Back.png"
   inkscape:export-xdpi="125"
   inkscape:export-ydpi="125"
   xmlns:inkscape="http://www.inkscape.org/namespaces/inkscape"
   xmlns:sodipodi="http://sodipodi.sourceforge.net/DTD/sodipodi-0.dtd"
   xmlns="http://www.w3.org/2000/svg"
   xmlns:svg="http://www.w3.org/2000/svg"
   xmlns:rdf="http://www.w3.org/1999/02/22-rdf-syntax-ns#"
   xmlns:cc="http://creativecommons.org/ns#"
   xmlns:dc="http://purl.org/dc/elements/1.1/">
  <defs
     id="defs2" />
  <sodipodi:namedview
     id="base"
     pagecolor="#ffffff"
     bordercolor="#666666"
     borderopacity="1.0"
     inkscape:pageopacity="0.0"
     inkscape:pageshadow="2"
     inkscape:zoom="1.4"
     inkscape:cx="287.85714"
     inkscape:cy="216.07143"
     inkscape:document-units="mm"
     inkscape:current-layer="layer1"
     showgrid="true"
     inkscape:window-width="1920"
     inkscape:window-height="991"
     inkscape:window-x="-9"
     inkscape:window-y="-9"
     inkscape:window-maximized="1"
     showguides="false"
     inkscape:lockguides="false"
     inkscape:showpageshadow="2"
     inkscape:pagecheckerboard="0"
     inkscape:deskcolor="#d1d1d1">
    <inkscape:grid
       type="xygrid"
       id="grid10"
       originx="79.654231"
       originy="98.521065"
       spacingy="1"
       spacingx="1"
       units="mm"
       visible="true" />
  </sodipodi:namedview>
  <metadata
     id="metadata5">
    <rdf:RDF>
      <cc:Work
         rdf:about="">
        <dc:format>image/svg+xml</dc:format>
        <dc:type
           rdf:resource="http://purl.org/dc/dcmitype/StillImage" />
      </cc:Work>
    </rdf:RDF>
  </metadata>
  <g
     inkscape:label="Layer 1"
     inkscape:groupmode="layer"
     id="layer1"
     transform="translate(79.654213,-164.0831)">
    <rect
       id="rect12"
       width="150.8125"
       height="95.249985"
       x="-18.52083"
       y="217.625"
       style="fill:none;fill-opacity:1;stroke-width:0.20259" />
    <text
       xml:space="preserve"
       style="font-style:normal;font-weight:normal;font-size:16.9333px;line-height:1.25;font-family:sans-serif;letter-spacing:0px;word-spacing:0px;fill:#9c9caa;fill-opacity:1;stroke:none;stroke-width:0.327185;stroke-opacity:1"
       x="-34.469269"
       y="228.83607"
       id="text824"
       transform="scale(1.0510395,0.95143902)"><tspan
         sodipodi:role="line"
         id="tspan822"
         x="-34.469269"
         y="228.83607"
         style="font-style:normal;font-variant:normal;font-weight:bold;font-stretch:normal;font-size:16.9333px;font-family:'Segoe UI';-inkscape-font-specification:'Segoe UI Bold';opacity:0.85;fill:#6d6d81;fill-opacity:1;stroke:none;stroke-width:0.327185;stroke-opacity:1">Nwinix</tspan></text>
    <text
       xml:space="preserve"
       style="font-style:normal;font-weight:normal;font-size:5.64444px;line-height:1.45;font-family:sans-serif;letter-spacing:0px;word-spacing:0px;fill:#969696;fill-opacity:1;stroke:none;stroke-width:0.264583"
       x="-59.956379"
       y="232.62617"
       id="text825"><tspan
         sodipodi:role="line"
         x="-59.956379"
         y="232.62617"
         style="font-style:normal;font-variant:normal;font-weight:normal;font-stretch:normal;font-size:5.64444px;line-height:1.45;font-family:'Segoe UI';-inkscape-font-specification:'Segoe UI';fill:#827e92;fill-opacity:1;stroke-width:0.264583"
         id="tspan1">THE NEW SOFTWARE TECHNOLOGY</tspan></text>
    <rect
       style="fill:none;fill-opacity:1;stroke-width:0.264583"
       id="rect849"
       width="103.1875"
       height="58.208332"
       x="5.2916698"
       y="234.02919" />
    <path
       d="m -39.777354,206.51382 v 0 a 0.0097189,0.00999023 0 0 1 -0.0097,-0.0103 1.5744597,1.6184185 0 0 0 -0.583134,-0.58942 l -8.552618,-4.94514 a 1.5550222,1.5984381 0 0 0 -1.516146,0 l -8.552623,4.94516 a 1.5744597,1.6184185 0 0 0 -0.583132,0.58942 0.0097189,0.00999023 0 0 1 -0.0097,0.0103 v 0.0201 a 1.4578331,1.4985355 0 0 0 -0.204096,0.76926 v 9.85037 a 1.564741,1.6084283 0 0 0 0.796947,1.39861 l 8.552623,4.94519 a 1.6036164,1.6483893 0 0 0 0.69976,0.1998 h 0.136065 a 1.564741,1.6084283 0 0 0 0.680321,-0.1998 l 8.552624,-4.94522 a 1.564741,1.6084283 0 0 0 0.796946,-1.39864 v -9.85041 a 1.5161463,1.5584769 0 0 0 -0.204096,-0.78922 z m -9.816075,4.79532 -7.823705,-4.47564 7.736233,-4.47561 7.745954,4.47561 z m 8.46515,5.84429 -7.765391,4.49559 0.07775,-8.95127 7.687641,-4.49559 z"
       id="path1"
       style="fill:#9c9caa;fill-opacity:1;stroke:none;stroke-width:0.0985365;stroke-opacity:1" />
    <rect
       style="fill:none;stroke-width:0.264583"
       id="rect3121"
       width="155.53278"
       height="131.7247"
       x="-79.654213"
       y="164.0831" />
  </g>
</svg>
